<?xml version="1.0" encoding="UTF-8" standalone="no"?>
<!-- Created with Inkscape (http://www.inkscape.org/) -->

<svg
   xmlns:dc="http://purl.org/dc/elements/1.1/"
   xmlns:cc="http://creativecommons.org/ns#"
   xmlns:rdf="http://www.w3.org/1999/02/22-rdf-syntax-ns#"
   xmlns:svg="http://www.w3.org/2000/svg"
   xmlns="http://www.w3.org/2000/svg"
   xmlns:sodipodi="http://sodipodi.sourceforge.net/DTD/sodipodi-0.dtd"
   xmlns:inkscape="http://www.inkscape.org/namespaces/inkscape"
   version="1.1"
   id="svg2"
   xml:space="preserve"
   width="3636.7368"
   height="3216.5898"
   viewBox="0 0 3636.7368 3216.5899"
   sodipodi:docname="alma.svg"
   inkscape:version="0.92.4 (5da689c313, 2019-01-14)"
   inkscape:export-filename="D:\alma-text-300.png"
   inkscape:export-xdpi="3.115453"
   inkscape:export-ydpi="3.115453"><metadata
     id="metadata8"><rdf:RDF><cc:Work
         rdf:about=""><dc:format>image/svg+xml</dc:format><dc:type
           rdf:resource="http://purl.org/dc/dcmitype/StillImage" /><dc:title></dc:title></cc:Work></rdf:RDF></metadata><defs
     id="defs6" /><sodipodi:namedview
     pagecolor="#ffffff"
     bordercolor="#666666"
     borderopacity="1"
     objecttolerance="10"
     gridtolerance="10"
     guidetolerance="10"
     inkscape:pageopacity="0"
     inkscape:pageshadow="2"
     inkscape:window-width="1920"
     inkscape:window-height="1017"
     id="namedview4"
     showgrid="false"
     inkscape:zoom="0.11125147"
     inkscape:cx="4091.5916"
     inkscape:cy="-49.659807"
     inkscape:window-x="-8"
     inkscape:window-y="-8"
     inkscape:window-maximized="1"
     inkscape:current-layer="g10"
     fit-margin-top="0"
     fit-margin-left="0"
     fit-margin-right="0"
     fit-margin-bottom="0"
     inkscape:snap-text-baseline="true" /><g
     id="g10"
     inkscape:groupmode="layer"
     inkscape:label="ink_ext_XXXXXX"
     transform="matrix(1.3333333,0,0,-1.3333333,-1181.7791,4608.3707)"><path
       style="fill:#242424;fill-opacity:1;fill-rule:evenodd;stroke:none;stroke-width:0.24614532"
       d="m 1752.3906,598.12109 c -35.1618,-0.0246 -70.2311,1.85839 -104.9746,5.63672 -9.8457,1.0584 -15.3108,4.60271 -19.7168,10.21485 -2.1661,2.78146 -3.4712,6.12933 -4.7265,9.42773 l -0.8848,5.24219 -10.8067,159.4043 -0.2714,0.0488 c -41.6971,7.60587 -82.9005,18.55833 -123.0469,32.73633 -0.9353,0.34453 -1.8713,0.6651 -2.8067,1.00977 l -89.0546,-132.64844 c -2.9784,-3.6184 -3.5215,-4.82453 -7.4844,-7.43359 -1.4768,-0.96 -3.1505,-1.62401 -4.7012,-2.46094 -1.6984,-0.49227 -3.3973,-0.98416 -5.0957,-1.47656 -5.2921,-0.44307 -5.2911,-0.4436 -10.5586,0.17187 l -5.0469,1.65039 c -62.127,27.34667 -121.8334,61.38772 -177.0019,101.18945 -3.1212,2.24 -6.0313,3.34744 -10.6465,8.41797 -6.0664,6.67054 -7.4733,15.95095 -6.0801,24.73828 l 1.8496,4.97266 70.3555,143.42773 -0.209,0.19727 c -32.3928,27.4944 -62.5345,57.52373 -90.1914,89.86723 -0.6473,0.763 -1.2912,1.526 -1.9336,2.289 l -143.4472,-70.37303 c -5.0338,-1.87066 -10.2616,-3.19861 -15.502,-2.43554 -5.2404,0.7384 -9.88922,3.47005 -14.19922,6.66992 l -3.54492,3.9375 c -40.14373,54.74285 -74.86348,114.18775 -102.70508,176.14255 -1.57533,3.5199 -3.53892,5.9071 -5.00586,12.627 -1.92733,8.812 1.4993,17.5501 7.10157,24.4668 l 4.08593,3.373 132.65038,89.0547 -0.092,0.2461 c -14.30598,40.0232 -25.44244,81.3507 -33.16404,122.9492 -0.18214,0.9599 -0.36187,1.9452 -0.53907,2.9297 l -159.40429,10.8067 c -5.29707,0.886 -10.48905,2.3376 -14.65625,5.6113 -4.1648,3.2737 -6.81944,7.9508 -8.95117,12.8984 l -1.10157,5.168 c -7.62066,69.5607 -7.73485,140.9441 -0.17578,210.5293 1.0708,9.8459 4.61638,15.3101 10.22852,19.6914 2.77653,2.1908 6.122,3.47 9.42773,4.75 l 5.22852,0.8867 159.40429,10.7813 0.0488,0.2695 c 7.79054,42.7801 18.9405,84.6741 33.74611,125.8789 l -132.65041,89.0313 c -4.14026,3.4214 -7.9049,7.286 -9.8789,12.209 -1.97413,4.8982 -1.92886,10.2895 -1.3086,15.6308 l 1.64258,5.0449 c 27.1376,61.684 60.86995,120.9311 100.21875,175.6739 1.6172,2.2398 3.24393,4.4807 4.88086,6.7207 1.46947,2.0184 2.36487,3.2983 4.51367,5.2675 5.25027,4.7752 12.40405,7.3208 19.49805,6.9122 4.7456,-0.2732 5.8187,-1.0479 10.2051,-2.6797 l 143.4453,-70.3477 1.0528,1.2305 c 27.8341,32.6881 58.1869,63.1119 91.2812,91.0937 l -70.3555,143.4453 c -1.8756,5.0362 -3.2053,10.2635 -2.457,15.5039 0.7459,5.243 3.4827,9.8893 6.6875,14.1993 l 3.9434,3.5468 c 56.9777,41.7759 118.2565,77.1955 182.205,105.4063 9.0828,3.9999 15.5799,3.6569 22.2012,0.9961 3.2737,-1.3144 6.0557,-3.5654 8.8125,-5.793 l 3.3731,-4.0879 89.0546,-132.6504 0.2461,0.09 c 40.171,14.365 81.2277,25.4267 122.9493,33.1679 0.9845,0.1798 1.9451,0.3624 2.9296,0.5372 l 10.8067,159.4062 c 0.8861,5.2971 2.3376,10.4891 5.6113,14.6563 3.2738,4.1648 7.9755,6.8234 12.8985,8.955 l 5.1933,1.0938 c 68.0592,7.4458 136.2667,7.7448 203.8828,0.875 3.8152,-0.3866 6.8675,0.121 13.4395,-1.9688 8.5905,-2.7372 14.4478,-10.0754 17.623,-18.3828 l 0.8867,-5.2285 10.7813,-159.4062 0.2695,-0.047 c 42.9031,-7.8152 84.7727,-18.967 125.8789,-33.7481 l 89.0567,132.6504 c 3.4214,4.1402 7.2606,7.9048 12.1836,9.8789 4.9229,1.9766 10.3142,1.9284 15.6308,1.3106 l 5.045,-1.6426 c 62.1517,-27.3395 120.9556,-60.8916 175.6738,-100.2207 2.2398,-1.6172 4.4808,-3.2415 6.7207,-4.8809 2.0184,-1.4696 3.323,-2.3696 5.2676,-4.5136 4.7998,-5.2527 7.3345,-12.4068 6.916,-19.4981 -0.2707,-4.7433 -1.0591,-5.8188 -2.6836,-10.2051 l -70.3477,-143.4453 1.2305,-1.0508 c 31.9743,-27.2261 62.0291,-57.2569 89.1543,-89.0097 0.6645,-0.7631 1.3034,-1.5006 1.9434,-2.2637 l 143.455,70.3477 c 5.0214,1.8732 10.263,3.2027 15.5059,2.457 5.2183,-0.7483 9.871,-3.4896 14.2031,-6.6895 l 3.5195,-3.9394 c 39.851,-54.3489 74.3114,-113.1782 102.0274,-174.6406 1.1568,-2.5107 2.2642,-5.0448 3.3965,-7.5801 1.0092,-2.2645 1.6737,-3.7182 2.289,-6.5488 1.5262,-6.9412 0.1481,-14.398 -3.7656,-20.3301 -2.6091,-3.963 -3.8145,-4.5294 -7.4082,-7.5078 l -132.6484,-89.0313 0.541,-1.5508 c 14.1535,-39.7524 25.0577,-80.5382 32.7129,-121.6445 0.1722,-0.9847 0.3707,-1.9686 0.5429,-2.9531 l 159.4024,-10.7813 c 5.2921,-0.8861 10.4866,-2.363 14.6465,-5.6367 4.1598,-3.2491 6.8175,-7.9521 8.959,-12.875 l 1.1074,-5.1933 c 7.3844,-67.4931 7.7303,-135.2317 1.0351,-202.2325 -0.2708,-2.7568 -0.566,-5.5127 -0.8613,-8.2695 -0.2708,-2.486 -0.3951,-4.0616 -1.2812,-6.8184 -2.1662,-6.769 -7.0888,-12.5531 -13.4395,-15.7285 -4.2336,-2.1414 -5.5631,-2.0202 -10.166,-2.7832 l -159.4024,-10.8047 -0.2968,-1.5996 c -7.5814,-41.2293 -18.4854,-82.0647 -32.5157,-121.7187 -0.32,-0.9354 -0.6643,-1.8713 -0.9843,-2.8067 l 132.6484,-89.0547 c 4.1352,-3.4213 7.8999,-7.2872 9.8691,-12.1855 1.9692,-4.9229 1.9447,-10.313 1.3047,-15.6543 l -1.623,-5.0469 c -27.5929,-62.6686 -61.4882,-121.9638 -101.1914,-177.00195 -2.2646,-3.126 -3.3728,-6.03073 -8.4434,-10.6582 -6.646,-6.05453 -15.9254,-7.45848 -24.7129,-6.08008 l -4.9707,1.8457 -143.455,70.37303 -0.1719,-0.2207 c -27.4946,-32.3681 -57.7461,-62.71762 -89.8926,-90.18748 -0.7385,-0.64 -1.5007,-1.28065 -2.2637,-1.94532 l 70.3477,-143.42968 c 1.8706,-5.04587 3.2013,-10.26306 2.4629,-15.50586 -0.7384,-5.24294 -3.4953,-9.89553 -6.6953,-14.20313 l -3.9395,-3.54492 c -54.5459,-39.99866 -113.2759,-74.33588 -174.6152,-102.02734 -2.5354,-1.13227 -5.0702,-2.2635 -7.6055,-3.3711 -2.2645,-1.0092 -3.6928,-1.69912 -6.5234,-2.31445 -6.9414,-1.50147 -14.4234,-0.12344 -20.3555,3.76563 -3.9629,2.60906 -4.504,3.81519 -7.4824,7.43359 l -89.0567,132.64844 -1.5507,-0.54102 c -39.6295,-14.10413 -80.4891,-25.08236 -121.6446,-32.71289 -0.9845,-0.19693 -1.9686,-0.36875 -2.9531,-0.54101 l -10.7813,-159.4043 c -0.8861,-5.29214 -2.364,-10.48552 -5.6132,-14.66992 -3.2738,-4.15987 -7.9736,-6.81875 -12.8965,-8.93555 l -5.1953,-1.10742 c -35.1127,-3.85214 -70.3655,-5.78398 -105.5274,-5.8086 z m -1.3476,464.62301 c 1.3538,0 2.7066,1e-4 4.0605,0.025 49.7213,0.3446 99.2952,7.9503 146.752,22.793 150.5178,47.1121 273.0006,167.2066 324.248,314.0078 43.2724,123.9587 35.3205,264.3839 -21.293,382.2383 -53.2165,110.7408 -148.425,200.7558 -261.8242,247.5234 -122.7526,50.6322 -263.7441,49.7712 -385.0937,-1.1562 -105.5472,-44.3308 -194.5288,-125.3864 -248.6563,-226.0352 -48.2714,-89.7938 -67.7849,-194.1855 -56.2578,-294.9082 16.2061,-141.5828 95.5429,-272.8755 211.3789,-353.9804 83.5172,-58.4842 185.4214,-90.2617 286.6856,-90.5079 z"
       transform="matrix(0.75000002,0,0,-0.75000002,886.33435,3456.2771)"
       id="path4593"
       inkscape:connector-curvature="0" /><path
       style="fill:#09487e;fill-opacity:1;fill-rule:evenodd;stroke:none;stroke-width:0.24614532"
       d="m 1751.8633,651.46094 c -26.0699,0 -52.1423,1.107 -78.086,3.32226 l -10.707,157.87696 c -0.7384,4.47973 -0.6164,5.76128 -2.6348,9.89648 -5.7844,11.86427 -20.5279,14.59476 -36.1582,17.35156 -47.8998,8.41814 -94.6179,21.56388 -139.8593,39.13868 l -4.9473,1.40234 c -8.7135,0.71373 -17.6254,-1.42687 -23.582,-7.4082 -1.2062,-1.23067 -2.1904,-2.65909 -3.2735,-3.98829 l -88.1933,-131.39257 c -47.2846,22.17773 -92.5299,48.31906 -135.2559,78.07812 l 69.6836,142.09961 c 1.6,4.2584 2.3382,5.29074 2.6582,9.86914 0.96,13.41493 -11.1515,23.48316 -22.6465,33.10747 -37.1556,31.162 -71.0938,65.9178 -101.5273,103.8242 l -3.5879,3.6914 c -7.1948,4.9721 -15.9823,7.5813 -24.1445,5.3906 -1.6542,-0.4676 -3.2062,-1.205 -4.8086,-1.8203 l -142.0918,-69.6836 c -29.52763,42.3616 -55.5303,87.3558 -77.53323,134.0742 l -0.55078,1.1563 131.40041,88.2187 3.9687,3.25 c 2.8874,3.5199 3.9263,4.2585 5.7207,8.4922 3.5519,8.3689 1.073,17.9188 -2.4297,27.1738 -17.7986,47.1862 -30.789,96.2188 -38.705,146.4571 l -0.3926,2.5351 -1.2637,4.9727 c -3.7439,7.9012 -10.0536,14.5456 -18.2207,16.7363 -1.6541,0.4431 -3.3798,0.5671 -5.06835,0.8379 l -157.90234,10.6816 c -4.38387,51.4444 -4.40782,103.3823 -0.10742,154.9004 l 0.10742,1.2793 157.90234,10.6836 5.06835,0.836 c 4.2509,1.6 5.5189,1.7236 9.1914,4.4804 9.4471,7.1382 10.7534,20.8974 12.9688,33.5 8.2384,46.8168 21.1165,92.9934 38.2285,137.4473 l 0.9238,2.3887 1.3926,4.9472 c 0.7115,8.7135 -1.4302,17.6242 -7.4141,23.6055 -1.2134,1.2061 -2.6445,2.165 -3.9687,3.248 l -131.40041,88.2188 c 21.9832,46.866 47.92695,91.8121 77.34371,134.1738 l 0.7403,1.084 142.0918,-69.709 4.8086,-1.7969 c 5.0582,-0.8614 5.0759,-0.8606 10.2031,-0.7128 1.6688,0.3692 3.341,0.7382 5.0098,1.1074 4.1573,1.8214 5.4191,2.0169 8.9316,4.9707 3.2664,2.7568 5.6757,6.3013 8.3809,9.5996 32.0628,39.1372 68.1163,74.9272 107.4921,106.7539 l 1.9922,1.5996 3.668,3.5938 c 4.9721,7.1948 7.5814,15.9824 5.3906,24.1445 -0.4429,1.6516 -1.2048,3.2081 -1.8203,4.8105 l -69.6836,142.0899 c 42.5093,29.6236 87.405,55.5524 134.0742,77.5332 l 1.1817,0.5508 88.1933,-131.4004 3.2735,-3.9668 c 3.4952,-2.8899 4.2351,-3.9259 8.4687,-5.7227 8.4183,-3.5617 18.0664,-1.0193 27.1738,2.4317 47.383,17.8653 96.4637,30.8288 146.4805,38.7031 l 2.5117,0.3926 4.9727,1.2675 c 7.9259,3.7439 14.5702,10.0517 16.7363,18.2188 0.4431,1.6541 0.5671,3.3773 0.8379,5.0683 l 10.707,157.9004 c 51.592,4.4011 103.4552,4.3998 154.875,0.1094 l 1.2793,-0.1094 10.7071,-157.9004 0.8379,-5.0683 c 1.5753,-4.2509 1.699,-5.5184 4.4804,-9.1934 5.5383,-7.3621 14.989,-9.8967 24.7364,-11.4843 50.7305,-8.332 100.7974,-22.0484 148.5742,-40.6348 l 4.9472,-1.3926 c 8.7136,-0.7137 17.6242,1.4278 23.6055,7.4141 1.2061,1.2109 2.1651,2.6449 3.2481,3.9668 l 88.2187,131.4004 c 46.8661,-21.9858 91.8131,-47.9219 134.1992,-77.3438 l 1.0586,-0.7402 -69.709,-142.0899 -1.7968,-4.8105 c -0.763,-4.4749 -1.2791,-5.6347 -0.7129,-10.2031 1.4522,-11.7511 12.7249,-19.7495 22.5215,-27.9707 4.849,-4.0614 9.6243,-8.1965 14.375,-12.3809 31.5804,-27.8883 60.6502,-58.4352 87.1601,-91.4434 l 3.5684,-3.6933 c 7.2121,-4.9722 15.999,-7.5559 24.1465,-5.3653 1.6492,0.4431 3.2007,1.2061 4.8007,1.7969 l 142.0996,69.709 c 29.7591,-42.7061 55.999,-88.1457 78.0782,-135.2578 l -131.3926,-88.2188 c -3.4952,-2.8798 -4.6538,-3.3957 -7.2383,-7.2109 -9.5257,-14.1041 1.0099,-33.5999 7.7051,-53.1191 5.1936,-15.1627 9.8944,-30.4717 14.1035,-45.9297 7.2859,-26.8544 13.0468,-54.1766 17.2559,-81.6465 l 1.2793,-4.9727 c 3.7414,-7.9012 10.0428,-14.5476 18.2148,-16.7382 1.6492,-0.4184 3.3719,-0.5405 5.0703,-0.836 l 157.9024,-10.6836 c 4.4306,-52.0597 4.4306,-104.2922 0,-156.1797 l -157.9024,-10.6816 c -4.4797,-0.7385 -5.7338,-0.6164 -9.8691,-2.6348 -12.2088,-5.932 -14.7209,-21.3654 -17.5762,-37.414 -8.4427,-47.4323 -21.5616,-93.9281 -38.9394,-138.6035 l -1.379,-4.9473 c -0.7138,-8.7136 1.4289,-17.6242 7.4102,-23.6055 1.2061,-1.2061 2.6337,-2.1671 3.9629,-3.25 l 131.3926,-88.2187 c -21.9562,-46.7923 -47.9256,-91.7876 -77.3399,-134.1739 l -0.7383,-1.0566 -142.0996,69.6836 -4.8007,1.8203 c -4.4799,0.7384 -5.6359,1.281 -10.1895,0.7148 -11.372,-1.403 -19.2972,-12.135 -27.1738,-21.5625 -30.8666,-36.9217 -65.327,-70.717 -102.6426,-100.89448 l -1.9941,-1.60157 -3.668,-3.59375 c -4.9968,-7.18746 -7.5813,-15.97448 -5.3906,-24.14648 0.443,-1.6492 1.206,-3.19883 1.7968,-4.79883 l 69.709,-142.09961 c -42.7554,-29.7836 -88.121,-55.94972 -135.2578,-78.07812 l -88.2187,131.39257 c -2.8552,3.51987 -3.3958,4.67719 -7.211,7.26172 -14.6456,9.89507 -35.125,-1.62435 -55.5058,-8.54101 -40.6879,-13.78414 -82.3122,-23.95008 -125.1661,-30.54688 l -4.996,-1.25586 c -7.9012,-3.766 -14.5469,-10.06823 -16.7129,-18.24023 -0.4431,-1.6492 -0.5671,-3.37191 -0.8379,-5.07031 L 1829.9316,654.7832 c -25.9314,-2.21526 -51.9985,-3.32226 -78.0683,-3.32226 z m -0.8203,411.28316 c 1.3538,0 2.7066,1e-4 4.0605,0.025 49.7213,0.3446 99.2952,7.9503 146.752,22.793 150.5178,47.1121 273.0006,167.2066 324.248,314.0078 43.2724,123.9587 35.3205,264.3839 -21.293,382.2383 -53.2165,110.7408 -148.425,200.7558 -261.8242,247.5234 -122.7526,50.6322 -263.7441,49.7712 -385.0937,-1.1562 -105.5472,-44.3308 -194.5288,-125.3864 -248.6563,-226.0352 -48.2714,-89.7938 -67.7829,-194.1855 -56.2558,-294.9082 16.2061,-141.5828 95.5409,-272.8755 211.3769,-353.9804 83.5172,-58.4842 185.4214,-90.2617 286.6856,-90.5079 z"
       transform="matrix(0.75000002,0,0,-0.75000002,886.33435,3456.2771)"
       id="path4591"
       inkscape:connector-curvature="0" /><path
       style="fill:#242424;fill-opacity:1;fill-rule:evenodd;stroke:none;stroke-width:0.24614532"
       d="m 1752.7402,1009.4043 c -12.8488,0 -25.5496,0.3944 -38.2754,1.2559 -158.5176,10.5597 -307.5831,91.7638 -403.1367,215.9687 -74.513,96.8581 -115.536,218.797 -114.9551,340.959 0.5612,117.3867 39.3036,233.642 108.9258,327.5957 82.3356,111.11 206.6626,189.6063 342.3379,215.4023 106.384,20.2332 218.4538,8.7131 318.0195,-32.9101 116.9191,-48.8599 215.8942,-138.9006 275.7813,-250.2813 68.1823,-126.8388 83.8365,-278.8329 44.3301,-416.1328 -34.8542,-121.1281 -112.5605,-229.3836 -215.8184,-301.7012 -92.1076,-64.49 -204.0067,-99.8607 -317.209,-100.1562 z m -1.6972,53.3398 c 1.3538,0 2.7066,1e-4 4.0605,0.025 49.7213,0.3446 99.2952,7.9503 146.752,22.793 150.5178,47.1121 273.0006,167.2066 324.248,314.0078 43.2724,123.9587 35.3205,264.3839 -21.293,382.2383 -53.2165,110.7408 -148.425,200.7558 -261.8242,247.5234 -122.7526,50.6322 -263.7441,49.7712 -385.0937,-1.1562 -105.5472,-44.3308 -194.5288,-125.3864 -248.6563,-226.0352 -48.2714,-89.7938 -67.7829,-194.1836 -56.2558,-294.9062 16.2061,-141.5828 95.5409,-272.8775 211.3769,-353.9824 83.5172,-58.4842 185.4214,-90.2617 286.6856,-90.5079 z"
       id="path4589"
       transform="matrix(0.75000002,0,0,-0.75000002,886.33435,3456.2771)"
       inkscape:connector-curvature="0" /><path
       style="fill:#242424;fill-opacity:1;fill-rule:evenodd;stroke:#232323;stroke-width:0.29125464;stroke-opacity:0.99607843"
       d="m 3083.6758,0.1484375 c -6.6474,-0.11196875 -11.694,2.0289282 -16.2813,5.6113281 -1.5436,1.1650667 -2.7951,2.6780751 -4.164,4.046875 l -3.2051,4.8359374 -44.3867,86.851562 -0.291,-0.0293 c -41.5911,-4.514396 -83.8231,-3.843852 -124.7735,1.77735 -0.932,0.1456 -1.8924,0.26065 -2.8535,0.40625 l -47.3008,-85.279299 c -1.136,-1.601867 -2.0681,-3.289827 -3.3496,-4.746094 -2.5921,-2.912533 -5.7965,-5.2433762 -9.3789,-6.7871095 -3.5241,-1.5436 -7.4563,-1.8922604 -11.3301,-2.1835937 L 2810.5957,5.4375 c -66.1148,16.6016 -127.4823,43.106785 -184.5391,79.833984 -9.0289,5.796 -12.3493,12.262106 -13.3105,19.951176 -0.2628,1.92226 -0.059,3.87288 -0.088,5.82422 l 1.1641,5.67968 30.0293,92.79297 -0.2325,0.17578 c -32.271,25.97987 -61.746,56.21156 -86.9687,89.50196 -0.5825,0.75733 -1.1657,1.54358 -1.7481,2.30078 l -93.7539,-26.85352 c -1.8932,-0.32027 -3.7867,-0.87423 -5.7089,-0.99023 -3.903,-0.23294 -7.8065,0.37967 -11.418,1.83593 -3.6116,1.398 -6.6112,3.93098 -9.582,6.46485 l -3.4942,4.63086 c -33.9895,56.7364 -59.8823,121.5413 -74.0664,186.95703 -2.2717,10.4852 -0.06,17.38774 4.7168,23.5332 1.1941,1.51454 2.6799,2.76606 4.0488,4.16406 l 4.836,3.17579 86.8515,44.41601 -0.029,0.29102 c -4.5726,42.17373 -3.9328,85.51344 2.1836,127.6289 l -85.2793,47.29883 c -1.602,1.1068 -3.2898,2.06801 -4.7461,3.34961 -4.3397,3.81547 -7.399,9.14518 -8.5058,14.91211 -0.3794,1.89307 -0.3193,3.84554 -0.4649,5.79688 l 0.7852,5.73632 c 16.6015,66.144 43.2232,127.68636 79.834,184.56836 5.7958,8.99974 12.2619,12.34948 19.9511,13.31055 1.9223,0.2336 3.8728,0.0586 5.8243,0.0879 l 5.6797,-1.19336 92.7929,-30 0.2051,0.23242 c 26.1837,32.56227 56.2405,61.74599 89.4727,86.93943 0.7572,0.5825 1.5436,1.1655 2.33,1.7481 l -26.8828,93.7558 c -0.3204,1.9223 -0.8742,3.785 -0.9902,5.7363 -0.2331,3.8738 0.4087,7.7774 1.8359,11.418 1.398,3.5824 3.9601,6.582 6.4649,9.5528 l 4.6308,3.5253 c 58.5131,35.0088 121.6868,59.8803 186.9571,74.0352 10.485,2.2717 17.3877,0.06 23.5332,-4.6875 1.5145,-1.1941 2.766,-2.7091 4.164,-4.0488 l 3.1758,-4.8653 44.416,-86.8515 0.291,0.029 c 41.562,4.5144 83.5607,3.8729 124.7442,-1.7774 0.961,-0.1457 1.9217,-0.2605 2.8828,-0.4062 l 47.3008,85.3086 c 1.1066,1.5728 2.0681,3.2898 3.3496,4.7461 2.5922,2.9125 5.7672,5.2142 9.3496,6.7578 3.5533,1.5437 7.4546,1.8925 11.3574,2.2129 l 5.7383,-0.7852 c 65.7944,-16.5141 127.4825,-43.107 184.5684,-79.8633 8.9998,-5.796 12.3493,-12.233 13.3105,-19.9511 0.2323,-1.9223 0.057,-3.8728 0.086,-5.8243 l -1.1933,-5.6796 -30,-92.79301 0.2344,-0.17578 c 32.271,-25.9508 61.4546,-55.86208 86.9394,-89.50195 0.5825,-0.75733 1.1636,-1.54358 1.7461,-2.30078 l 93.7559,26.85351 c 1.9222,0.3496 3.7868,0.87424 5.7382,0.99024 5.7668,0.3496 11.6791,-1.25167 16.543,-4.51367 1.6019,-1.1068 2.9695,-2.53471 4.4258,-3.78711 l 3.5254,-4.63086 c 34.4262,-57.49373 59.853,-121.48303 74.0371,-186.95703 2.2717,-10.4852 0.087,-17.38764 -4.6895,-23.50391 -1.1941,-1.54373 -2.7089,-2.79513 -4.0488,-4.16406 l -4.8633,-3.20508 -86.8535,-44.38672 0.029,-0.29101 c 4.6309,-42.49414 3.9328,-85.54251 -2.1836,-127.62891 l 85.3086,-47.29883 c 1.5727,-1.13587 3.2917,-2.06824 4.7481,-3.37891 2.9125,-2.56306 5.2123,-5.76707 6.7851,-9.3496 1.5145,-3.52414 1.8653,-7.4544 2.1856,-11.32813 l -0.7872,-5.76758 c -15.6111,-62.12466 -40.5128,-121.13232 -73.8906,-175.13086 -1.6893,-2.70866 -3.3792,-5.38889 -5.0976,-8.06836 -0.029,-0.0292 -1.6894,-2.62105 -1.7188,-2.65039 -1.1941,-1.54373 -2.2719,-3.17589 -3.6699,-4.51562 -3.6989,-3.66974 -5.1542,-3.93093 -9.7852,-6.14453 -1.8641,-0.466 -3.7572,-0.90314 -5.6503,-1.36914 l -5.795,-0.0879 -5.709,1.19531 -92.7929,29.99805 -0.1758,-0.20313 c -26.3876,-32.8244 -56.3861,-61.86248 -89.4727,-86.96875 -0.7864,-0.5824 -1.5436,-1.16551 -2.33,-1.74805 l 26.8535,-93.7539 c 0.3494,-1.89307 0.8742,-3.78695 0.9902,-5.738284 0.3495,-5.766934 -1.2515,-11.678969 -4.5137,-16.542969 -1.1066,-1.601867 -2.5054,-2.942268 -3.7578,-4.427735 l -4.6601,-3.523437 c -57.4936,-34.426399 -120.5509,-59.64911 -186.9571,-74.0371094 -2.614,-0.56796663 -5.0068,-0.85525518 -7.2226,-0.8925781 z M 2959.834,468.33008 c 19.7179,-0.0291 38.9403,4.19398 56.6777,12.26172 44.6494,20.3004 75.6967,65.70567 79.25,113.9082 5.0387,68.85266 -45.6975,130.45368 -109.1328,143.15234 -54.1441,10.8056 -112.2215,-14.67951 -141.2305,-60.46484 -28.6594,-45.26093 -27.1734,-105.63799 2.0977,-149.00586 24.9313,-36.98933 68.3292,-59.6477 112.3379,-59.85156 z"
       transform="matrix(0.75000002,0,0,-0.75000002,886.33435,3456.2771)"
       id="path4603"
       inkscape:connector-curvature="0" /><path
       style="fill:#0895cd;fill-opacity:1;fill-rule:evenodd;stroke:#232323;stroke-width:0.29125464;stroke-opacity:0.99607843"
       d="m 3098.0332,57.486328 -43.4551,84.988282 -3.0293,4.63086 c -2.5921,2.62133 -5.2419,5.2716 -8.5039,6.96094 -8.6794,4.45613 -19.0772,2.12577 -28.8926,0.93164 -44.9988,-5.38827 -91.4256,-3.87405 -135.8711,4.25195 l -5.5039,0.4082 c -7.3978,-0.96106 -14.5928,-3.61099 -19.4277,-9.20312 -1.2232,-1.36894 -2.1253,-3.00109 -3.1738,-4.51563 l -46.3106,-83.472653 c -46.5716,13.368533 -91.2196,32.882236 -132.8691,57.667973 l 29.3574,90.84179 1.166,5.41797 c 0,7.42707 -1.6596,14.94088 -6.5527,20.47461 -4.1357,4.66013 -9.4951,7.74889 -14.3301,11.53516 -35.7077,28.04786 -67.1351,61.54132 -93.0859,99.08398 l -3.582,4.19336 c -5.9126,4.5436 -12.8737,7.77808 -20.2715,7.22461 -1.835,-0.116 -3.6123,-0.64054 -5.418,-0.96094 l -91.7734,-26.30078 c -23.3878,42.232 -41.2714,87.78434 -53.1836,134.76367 l 85.0175,43.48438 4.6309,3 c 2.5921,2.59213 5.2424,5.24177 6.9316,8.5039 4.5436,8.85414 2.0688,19.34033 0.8165,30.0586 -5.2718,44.824 -3.7569,90.25961 4.3691,134.70508 l 0.4062,5.5039 c -0.9612,7.39787 -3.6111,14.62028 -9.2031,19.45508 -1.3689,1.19413 -2.9991,2.09795 -4.5137,3.14648 l -83.4746,46.3086 c 13.3104,46.426 32.8824,91.22186 57.6973,132.90039 l 90.8145,-29.38867 5.416,-1.13477 c 3.6697,0 7.4287,6.2e-4 10.9238,1.10742 9.2911,2.9708 14.9986,11.99876 21.0859,19.7461 28.106,35.7952 61.25,66.93127 99.084,93.08593 l 4.1953,3.61133 c 2.2427,2.91254 4.5132,5.88361 5.7364,9.34961 1.864,5.21347 1.5156,10.80404 0.5253,16.33794 l -26.2714,91.746 c 42.3485,23.4752 87.755,41.2714 134.7343,53.1836 l 43.4844,-84.9882 3,-4.6309 c 2.5923,-2.6212 5.2419,-5.2715 8.5039,-6.9316 5.2718,-2.7088 11.3886,-3.3798 17.3301,-2.5059 48.7269,7.0775 99.3183,6.0871 147.4336,-2.6797 l 5.5332,-0.4375 c 3.6407,0.4952 7.3399,0.9917 10.6602,2.5645 5.0096,2.3592 8.7083,6.5816 11.9121,11.1543 l 46.3105,83.5019 c 46.6007,-13.3976 91.249,-32.9115 132.8984,-57.6972 l -29.3867,-90.84185 -1.1367,-5.38867 c 0,-3.69893 8e-4,-7.42704 1.1074,-10.95117 2.9708,-9.29107 11.9988,-14.99874 19.7461,-21.08594 35.8535,-28.1644 67.1352,-61.54314 93.086,-99.08594 l 3.6113,-4.19335 c 2.9125,-2.24267 5.8837,-4.51495 9.3496,-5.73829 5.2135,-1.864 10.835,-1.5137 16.3398,-0.52343 l 91.7735,26.30078 c 23.4169,-42.3192 41.242,-87.78434 53.1543,-134.76367 l -84.9883,-43.45508 -4.6309,-3.0293 c -5.2717,-5.24253 -9.4068,-11.70955 -9.8437,-19.10742 -0.3495,-5.8252 1.1057,-11.38727 1.8047,-17.125 5.5921,-45.6104 4.1642,-91.80329 -4.0781,-137.03516 l -0.4356,-5.5039 c 0.4951,-3.66974 0.9897,-7.36906 2.5625,-10.68946 2.3591,-4.9804 6.5815,-8.70837 11.1543,-11.91211 l 83.5039,-46.31054 c -13.3104,-46.39694 -32.9114,-91.21981 -57.6973,-132.86914 l -90.8437,29.35742 -5.3867,1.13672 c -7.4562,0.0293 -14.9427,-1.63233 -20.4766,-6.52539 -4.6892,-4.13587 -7.747,-9.46622 -11.5625,-14.33008 -28.1935,-35.91173 -61.9196,-67.39532 -99.0547,-93.08399 l -4.1953,-3.61132 c -4.5436,-5.88334 -7.7762,-12.84433 -7.2519,-20.24219 0.116,-1.83494 0.6405,-3.6121 0.9609,-5.41797 l 26.3008,-91.77344 C 3190.4193,87.194722 3145.0127,69.398728 3098.0332,57.486328 Z M 2959.834,468.33008 c 19.7179,-0.0291 38.9403,4.19398 56.6777,12.26172 44.6494,20.3004 75.6967,65.70567 79.25,113.9082 5.0387,68.85266 -45.6975,130.45368 -109.1328,143.15234 -54.1441,10.8056 -112.2215,-14.67951 -141.2305,-60.46484 -28.6594,-45.26093 -27.1734,-105.63799 2.0977,-149.00586 24.9313,-36.98933 68.3292,-59.6477 112.3379,-59.85156 z"
       transform="matrix(0.75000002,0,0,-0.75000002,886.33435,3456.2771)"
       id="path4601"
       inkscape:connector-curvature="0" /><path
       style="fill:#242424;fill-opacity:1;fill-rule:evenodd;stroke:#232323;stroke-width:0.29125464;stroke-opacity:0.99607843"
       d="m 2959.6582,415.00195 c -17.7373,0.0873 -35.475,2.65023 -52.4844,7.60157 -62.0954,18.14506 -112.3078,69.52264 -129.4336,131.12304 -17.7374,63.7848 0.8157,134.67483 45.8145,181.6543 42.9019,44.76573 108.4348,66.02728 169.0449,55.39648 65.2119,-11.4172 121.6864,-58.68614 144.7246,-119.84961 21.349,-56.79466 13.2815,-122.5314 -20.1836,-172.33593 -34.601,-51.46467 -94.92,-83.29865 -156.3164,-83.58985 z m 0.1758,53.32813 c 19.7179,-0.0291 38.9403,4.19398 56.6777,12.26172 44.6494,20.3004 75.6967,65.70762 79.25,113.91015 5.0387,68.85267 -45.6975,130.45173 -109.1328,143.15039 -54.1441,10.8056 -112.2215,-14.67755 -141.2305,-60.46289 -28.6594,-45.26093 -27.1734,-105.63799 2.0977,-149.00586 24.9313,-36.98933 68.3292,-59.64965 112.3379,-59.85351 z"
       transform="matrix(0.75000002,0,0,-0.75000002,886.33435,3456.2771)"
       id="path4599"
       inkscape:connector-curvature="0" /><path
       style="fill:#242424;fill-opacity:1;fill-rule:evenodd;stroke:none;stroke-width:0.29583466"
       d="m 3222.3965,1288.7715 c -0.4539,-0.014 -0.9063,-0.014 -1.3574,0.01 -7.3071,0.3551 -13.757,4.3198 -19.0821,9.4082 l -3.0761,4.5254 -36.4473,67.2129 h -0.4727 c -45.7656,-1.213 -91.3529,5.3855 -134.9589,19.6152 -1.0355,0.3253 -2.0428,0.6804 -3.0782,1.0059 l -54.4336,-53.6953 c -4.26,-3.4022 -4.2596,-3.4017 -9.1113,-5.8868 -1.7751,-0.4733 -3.5198,-0.9462 -5.2949,-1.4492 -4.7925,-0.2661 -6.0948,-0.7401 -10.8281,0.4727 -2.6034,0.6509 -5.8868,2.2187 -5.8868,2.2187 -62.6577,30.5894 -119.1918,74.9356 -164.0996,130.168 l -1.0351,1.2715 c -1.0354,1.5088 -2.16,2.9589 -2.9883,4.5859 -3.3429,6.5084 -3.1657,14.0811 -1.3906,21.2403 l 2.3672,4.9121 39.9961,65.1718 -0.2364,0.4141 c -24.3472,39.6715 -41.7705,83.5731 -51.1484,129.8477 l -73.7227,20.2968 c -1.7158,0.6598 -3.4608,1.1493 -5.0879,1.9805 -6.5084,3.34 -11.5081,9.4093 -13.4902,16.4531 -0.7395,2.5708 -1.0059,6.1895 -1.0059,6.1895 -4.9109,70.3081 5.4727,141.1076 30.6778,207.209 0,0.012 0.5624,1.5228 0.5918,1.5468 0.7986,1.6331 1.4788,3.3397 2.4551,4.8692 3.9642,6.1445 10.621,9.7635 17.6914,11.8047 l 5.4433,0.414 76.4434,-2.0625 0.2363,0.4375 c 22.3355,41.1299 51.7415,78.1651 86.8867,109.2129 l -19.289,73.9922 c -0.2663,1.7987 -0.7388,3.579 -0.8282,5.3984 -0.3549,7.3131 2.3977,14.6552 7.5157,19.9063 1.8637,1.92 4.8515,3.9648 4.8515,3.9648 58.4274,39.4051 124.842,65.8032 194.7774,77.045 0,0 1.5976,0.2597 1.6269,0.2597 1.8046,0.1243 3.6388,0.3843 5.4434,0.2949 7.3072,-0.3519 13.7846,-4.3059 19.0801,-9.4179 l 3.0781,-4.5098 36.4472,-67.2246 0.4727,0.014 c 46.6531,1.2544 93.3365,-5.6261 138.0371,-20.6367 l 54.4336,53.6972 c 1.42,1.139 2.751,2.428 4.2598,3.416 6.1533,3.9702 13.9039,5.245 21.0039,3.4551 2.6033,-0.6537 5.8574,-2.2265 5.8574,-2.2265 64.1371,-31.3171 119.458,-75.273 164.1289,-130.1622 0,-0.012 1.0058,-1.2632 1.0352,-1.2832 1.0058,-1.5117 2.1302,-2.956 2.9882,-4.5742 3.343,-6.5025 3.1363,-14.0752 1.3614,-21.2285 l -2.3672,-4.9238 -39.9981,-65.1621 0.2676,-0.4199 c 23.9331,-39.062 41.1209,-82.0683 50.6172,-127.3516 0.1775,-0.8343 0.3557,-1.6677 0.5332,-2.502 l 73.6914,-20.2949 c 1.7159,-0.6597 3.49,-1.1511 5.1172,-1.9824 6.5083,-3.34 11.4788,-9.4104 13.4609,-16.4512 0.7396,-2.5737 1.0059,-6.1914 1.0059,-6.1914 4.7629,-68.2431 -4.9998,-137.4783 -28.6074,-201.7129 -1.4792,-4.0825 -2.7505,-8.2538 -5.1172,-11.8926 -3.9345,-6.1533 -10.6209,-9.7907 -17.6914,-11.832 l -5.4434,-0.414 -76.4433,2.0703 -0.2364,-0.4434 c -21.6846,-39.9672 -50.0553,-76.1477 -84.4609,-107.0625 -0.7988,-0.71 -1.5975,-1.4209 -2.4258,-2.1309 l 19.2891,-74.0175 c 0.2958,-1.775 0.7388,-3.5803 0.8281,-5.3848 0.3845,-7.3072 -2.396,-14.6443 -7.4844,-19.9102 -1.8637,-1.9229 -4.8828,-3.9628 -4.8828,-3.9628 -58.4569,-39.4052 -124.842,-65.7935 -194.7773,-77.0352 0,0 -1.5976,-0.2676 -1.627,-0.2676 -1.3535,-0.089 -2.7241,-0.2598 -4.0859,-0.3027 z m -71.7363,315.4844 h 1.5097 c 63.3087,0.4733 122.8595,39.82 148.6563,96.3984 26.1517,57.4037 15.649,127.342 -23.7266,174.1992 -39.0797,46.4639 -103.1275,67.5518 -160.9336,54.9551 -52.1556,-11.3629 -97.2992,-49.4196 -117.416,-98.5488 -20.8563,-50.9102 -14.0227,-111.1061 16.7441,-155.8067 30.3231,-44.0676 82.4189,-70.9606 135.1661,-71.1972 z"
       transform="matrix(0.75000002,0,0,-0.75000002,886.33435,3456.2771)"
       id="path4612"
       inkscape:connector-curvature="0" /><path
       style="fill:#616465;fill-opacity:1;fill-rule:evenodd;stroke:none;stroke-width:0.29583466"
       d="m 3236.5996,1345.0469 -35.2637,65.0547 c -2.5145,3.7274 -2.9271,4.911 -6.4179,7.8398 -8.4904,7.0408 -21.1525,5.7086 -32.6309,5.3535 -45.884,-1.5086 -91.8576,6.2427 -134.9902,22.7207 0,0 -3.1059,1.1541 -5.4727,1.5684 -6.6858,1.1833 -13.7851,-0.2957 -19.4355,-4.0528 -1.42,-0.9467 -2.6337,-2.132 -3.9649,-3.2265 l -52.6582,-51.9473 c -44.523,24.0514 -84.639,55.8523 -118.0683,93.4824 l -0.9473,1.0664 38.7266,63.0411 c 1.9525,4.0529 2.7796,5.0013 3.5488,9.498 1.8637,10.8276 -5.4131,20.8843 -11.3594,30.4102 -24.436,39.1685 -40.8552,83.1164 -48.1328,128.7636 0,0 -0.5329,3.2712 -1.3613,5.5371 -2.3075,6.4019 -7.1282,11.7959 -13.252,14.8165 -1.5088,0.7514 -3.1664,1.2069 -4.7344,1.8105 l -71.3554,19.6367 c -1.3904,50.3482 6.0945,101.2406 21.9511,148.9824 l 0.4434,1.3438 73.959,-1.9922 5.0586,0.3457 c 1.6567,0.4349 3.285,0.8699 4.9121,1.3047 4.0529,1.9525 5.2956,2.193 8.668,5.2519 3.9642,3.6122 6.3007,8.692 8.7265,13.4668 21.9806,43.3487 53.1318,81.8771 90.7324,112.4043 0,0 2.5731,2.1062 4.1114,3.9493 4.3784,5.2096 6.6566,12.0827 6.2129,18.875 -0.1187,1.6922 -0.5326,3.3461 -0.7989,5.0175 l -18.666,71.5997 c 42.896,26.4062 90.5839,45.3173 139.9883,55.5 l 1.3906,0.2812 35.2344,-65.0527 c 2.5145,-3.7246 2.927,-4.9103 6.418,-7.8184 10.9458,-9.0761 28.1342,-5.1392 44.5234,-5.1719 41.9197,-0.085 83.8995,-7.8985 123.0977,-22.9004 0,0 3.106,-1.1609 5.4726,-1.5839 6.7155,-1.1923 13.7867,0.2857 19.4668,4.0605 1.3904,0.9408 2.632,2.14 3.9336,3.2109 l 52.6875,51.959 c 44.4048,-24.007 84.5209,-55.7643 118.0391,-93.4863 l 0.9472,-1.0586 -38.6953,-63.0566 c -1.9821,-4.0323 -2.8108,-4.9858 -3.58,-9.4707 -1.9822,-11.7447 6.5976,-22.574 13.2539,-33.4727 23.3413,-38.3135 39.1974,-81.6215 46.2382,-125.7246 0,0 0.5626,-3.2661 1.3614,-5.5293 2.337,-6.4019 7.1578,-11.7941 13.2519,-14.8145 1.5088,-0.7514 3.1662,-1.21 4.7637,-1.8105 l 71.3262,-19.6406 c 1.42,-50.3806 -6.006,-101.0166 -21.9219,-148.9981 l -0.4434,-1.3301 -73.9883,2.0118 c -4.467,-0.3255 -5.7107,-0.091 -9.9707,-1.6582 -10.4429,-3.8755 -15.649,-15.7373 -21.2402,-26.1211 -21.6255,-40.2631 -51.3274,-76.148 -86.8867,-105.0215 0,0 -2.5433,-2.1014 -4.1113,-3.9356 -4.3783,-5.2066 -6.6271,-12.0687 -6.2129,-18.873 0.1186,-1.6863 0.5618,-3.343 0.8281,-5.0293 l 18.668,-71.5918 c -43.044,-26.4772 -90.5563,-45.3233 -139.9903,-55.5 z m -85.9394,259.209 h 1.5097 c 63.3087,0.4733 122.8595,39.82 148.6563,96.3984 26.1517,57.4037 15.649,127.342 -23.7266,174.1992 -39.0797,46.4639 -103.1275,67.5518 -160.9336,54.9551 -52.1556,-11.3629 -97.2992,-49.4196 -117.416,-98.5488 -20.8563,-50.9102 -14.0227,-111.1061 16.7441,-155.8067 30.3231,-44.0676 82.4189,-70.9606 135.1661,-71.1972 z"
       transform="matrix(0.75000002,0,0,-0.75000002,886.33435,3456.2771)"
       id="path4610"
       inkscape:connector-curvature="0" /><path
       style="fill:#242424;fill-opacity:1;fill-rule:evenodd;stroke:none;stroke-width:0.29583466"
       d="m 3150.5117,1550.918 c -19.9688,0.089 -39.9365,2.8998 -59.1953,8.4023 -72.0949,20.5901 -130.4639,79.9933 -150.3144,151.3574 -16.7443,60.164 -5.917,126.2183 27.8378,177.7735 39.6418,60.5396 110.2869,98.4355 182.086,98.4355 76.2366,0 149.8708,-42.5003 188.0039,-107.4863 42.0677,-71.6335 38.2508,-163.8651 -6.3906,-231.1231 -39.7306,-59.9065 -109.3695,-97.0043 -180.6953,-97.3593 z m 0.1485,53.3398 h 1.5097 c 63.3087,0.4733 122.8595,39.8181 148.6563,96.3965 26.1517,57.4037 15.649,127.342 -23.7266,174.1992 -39.0797,46.4639 -103.1275,67.5518 -160.9336,54.9551 -52.1556,-11.3629 -97.2992,-49.4196 -117.416,-98.5488 -20.8563,-50.9102 -14.0227,-111.1061 16.7441,-155.8067 30.3231,-44.0676 82.4189,-70.9586 135.1661,-71.1953 z"
       transform="matrix(0.75000002,0,0,-0.75000002,886.33435,3456.2771)"
       id="path4608"
       inkscape:connector-curvature="0" /><g
       transform="scale(0.216539)"
       id="g26"><path
         inkscape:connector-curvature="0"
         id="path28"
         style="fill:#242424;fill-opacity:1;fill-rule:evenodd;stroke:none"
         d="m 16202.5,12465.2 c 4.9,-0.3 6.2,-0.3 11.1,-1 38.4,-6 71.3,-38.2 77.2,-77.7 0.7,-4.9 0.7,-6.1 1,-11.1 8.2,-300.1 -22.6,-595.2 -91.2,-882.4 -3,-12.4 -6.6,-27.3 -13.8,-39.5 -19.2,-31.9 -58.9,-50 -95.6,-43.4 -49.3,8.8 -84.1,62.1 -73.4,112.7 66.3,273.7 97,560.9 89.4,844.2 0,0 -0.2,21.3 5,36.3 11,31.6 40.2,56 73.6,61 10.7,1.5 13.2,0.9 16.7,0.9" /></g><g
       transform="scale(0.207909)"
       id="g30"><path
         inkscape:connector-curvature="0"
         id="path32"
         style="fill:#242424;fill-opacity:1;fill-rule:evenodd;stroke:none"
         d="m 7777.66,16300 c 585.81,-1.4 1171.38,-150.1 1684.94,-432.2 290.67,-159.6 556.8,-360.1 792.5,-595.5 l 360.6,-360.5 c 159.5,159.5 311.9,321.9 484.1,478.3 550.1,499.8 1262.9,817 2003.4,891.9 67.7,6.9 135.6,11.7 203.7,14.7 0,0 13.8,0.9 24.9,-1 59.6,-10.1 98.6,-83.4 69.3,-139.4 -12.5,-23.9 -35.2,-41.9 -61.3,-48.6 -15.8,-4.1 -32,-3.5 -48.2,-4.3 -772.2,-39.3 -1524.6,-354.9 -2092.1,-882.9 -29.6,-27.6 -58.6,-55.7 -87.3,-84.3 l -428.5,-428.5 c -12.9,-10.6 -15.6,-14.4 -31.2,-20.9 -23.4,-9.6 -50.3,-9.6 -73.7,0 -15.6,6.5 -18.3,10.3 -31.2,20.9 -144.1,144.1 -288.1,288.3 -432.3,432.3 -326.5,325 -720.1,581.9 -1150.07,747 -699.68,268.6 -1491.84,290.9 -2205.24,63.3 -644.17,-205.4 -1220.26,-614.3 -1630.14,-1152.5 -329.66,-432.8 -549.75,-949.3 -634.69,-1487.3 -112.64,-713.4 13.25,-1461.6 355.34,-2096.2 151.82,-281.6 346.44,-541.7 571.38,-767.7 827.53,-828.91 1660.61,-1660.63 2491.66,-2491.67 l 2702.16,-2702.13 3568,3568.08 c 10.5,8.45 21.1,16.99 33.6,21.78 37.7,14.49 83.7,2.2 109.2,-29.26 25.6,-31.54 28,-78.98 5.9,-112.94 -3.6,-5.62 -8.4,-10.41 -12.6,-15.62 l -3636.1,-3636.1 c -12.9,-10.57 -15.6,-14.39 -31.2,-20.85 -23.4,-9.67 -50.3,-9.67 -73.7,0 -15.6,6.46 -18.3,10.28 -31.2,20.85 -923.34,923.38 -1846.72,1846.76 -2770.1,2770.15 -831.05,831.04 -1663.94,1662.56 -2491.88,2491.91 -408.16,410 -712.99,920 -877.69,1473.8 -220.24,740.7 -188.91,1553.7 91.22,2276.7 271.24,700 775.92,1307.5 1409.87,1704.8 536.1,336 1164.22,521 1794.93,533.2 24.56,0.5 49.1,0.7 73.71,0.7" /></g></g></svg>